<svg width="74" height="91" viewBox="0 0 74 91" fill="none" xmlns="http://www.w3.org/2000/svg">
<path d="M36.9641 4.60657C49.727 4.60657 60.0845 14.896 60.0845 27.592C60.0845 32.5263 57.9637 40.0157 53.4785 45.2211L36.9641 64.3393L20.4566 45.2268C15.9656 40.0214 13.8449 32.532 13.8449 27.592C13.8449 14.896 24.2013 4.60657 36.9641 4.60657ZM36.9641 0.204102C21.8016 0.204102 9.42997 12.5099 9.42997 27.5908C9.42997 33.6967 11.7344 41.8654 17.0963 48.0824V48.0892L24.7944 56.9996H11.5688C10.6139 57.0041 9.76566 57.6177 9.4708 58.5192L0.109027 87.336C-0.353675 88.7536 0.714622 90.2041 2.21273 90.2041H71.7155C73.2204 90.2041 74.2819 88.7536 73.826 87.336L64.4574 58.5192C64.1626 57.6131 63.3143 56.9996 62.3549 56.9996H53.9525C50.8531 56.8465 50.8531 61.5563 53.9525 61.3964H60.749L68.6762 85.8016H5.25885L13.1792 61.3964H28.5901L34.5168 68.2564H30.6292C29.4327 68.2337 28.4438 69.1931 28.4438 70.3896C28.4438 71.586 29.4327 72.5534 30.6292 72.5296H43.2854C44.4887 72.5534 45.4776 71.586 45.4776 70.3896C45.4776 69.1931 44.4876 68.2348 43.2854 68.2564H39.416L56.8308 48.0892V48.0824C62.1995 41.8654 64.5039 33.6967 64.5039 27.5908C64.5051 12.5099 52.1267 0.204102 36.9641 0.204102Z" fill="#F7941D"/>
<path d="M41.7169 32.3186C39.0745 34.9474 34.8535 34.9531 32.2123 32.3254C29.5699 29.6966 29.5699 25.4892 32.2123 22.8582C34.8547 20.2305 39.0745 20.2362 41.7169 22.865C44.365 25.4926 44.365 29.6853 41.7169 32.313V32.3186ZM44.8504 35.4294C49.1825 31.1222 49.1825 24.0671 44.8504 19.7531C40.5125 15.4436 33.4201 15.4436 29.0902 19.7531C24.7523 24.0671 24.7523 31.121 29.0902 35.4294C33.4201 39.7389 40.5125 39.7389 44.8504 35.4294Z" fill="#F7941D"/>
</svg>
