<svg width="90" height="90" viewBox="0 0 90 90" fill="none" xmlns="http://www.w3.org/2000/svg">
<g clip-path="url(#clip0_14_24518)">
<path d="M20.0567 23.5468C20.2831 24.0317 20.6432 24.442 21.0947 24.7295C21.5462 25.0169 22.0703 25.1695 22.6055 25.1694H36.2813V30.0001C36.2813 30.746 36.5776 31.4614 37.1051 31.9888C37.6325 32.5163 38.3479 32.8126 39.0938 32.8126C39.8397 32.8126 40.5551 32.5163 41.0825 31.9888C41.61 31.4614 41.9063 30.746 41.9063 30.0001V25.1694H43.2018C43.9477 25.1694 44.6631 24.8731 45.1905 24.3457C45.718 23.8182 46.0143 23.1029 46.0143 22.3569C46.0143 21.611 45.718 20.8956 45.1905 20.3682C44.6631 19.8407 43.9477 19.5444 43.2018 19.5444H41.9063V2.66679C41.9062 2.0895 41.7284 1.52624 41.3971 1.05347C41.0658 0.580696 40.597 0.221324 40.0545 0.0241371C39.5119 -0.17305 38.9218 -0.198498 38.3643 -0.0487535C37.8067 0.100991 37.3088 0.418675 36.938 0.861169L20.4487 20.5513C20.1051 20.9616 19.8858 21.4614 19.8163 21.992C19.7469 22.5225 19.8303 23.0619 20.0567 23.5468ZM36.2813 10.4061V19.5448H28.6287L36.2813 10.4061ZM50.5143 70.1483L65.2486 47.1444H54.3998C53.6539 47.1444 52.9385 46.8481 52.411 46.3206C51.8836 45.7932 51.5873 45.0778 51.5873 44.3319C51.5873 43.5859 51.8836 42.8706 52.411 42.3431C52.9385 41.8157 53.6539 41.5194 54.3998 41.5194H70.3901C70.8948 41.5194 71.3901 41.6552 71.8243 41.9125C72.2584 42.1699 72.6153 42.5394 72.8575 42.9821C73.0997 43.4249 73.2183 43.9247 73.2009 44.4291C73.1834 44.9335 73.0306 45.4239 72.7584 45.8489L55.2505 73.1828C55.0518 73.4948 54.7934 73.7644 54.4902 73.9764C54.1871 74.1883 53.8451 74.3384 53.4839 74.418C53.1227 74.4976 52.7493 74.5051 52.3851 74.4402C52.021 74.3753 51.6732 74.2392 51.3617 74.0396C51.0503 73.8401 50.7812 73.5811 50.57 73.2775C50.3587 72.9739 50.2095 72.6315 50.1307 72.2701C50.052 71.9087 50.0453 71.5353 50.111 71.1713C50.1768 70.8073 50.3137 70.4599 50.514 70.1489L50.5143 70.1483ZM65.2377 18.4674C65.7652 18.9949 66.0615 19.7102 66.0615 20.4561C66.0615 21.202 65.7652 21.9174 65.2377 22.4448L23.7783 63.9044C23.2498 64.4266 22.5361 64.7184 21.7932 64.7161C21.0502 64.7139 20.3383 64.4177 19.813 63.8924C19.2876 63.367 18.9915 62.6551 18.9892 61.9122C18.987 61.1692 19.2788 60.4555 19.8009 59.927L61.2598 18.4674C61.521 18.2062 61.8311 17.999 62.1723 17.8576C62.5136 17.7162 62.8794 17.6434 63.2488 17.6434C63.6182 17.6434 63.984 17.7162 64.3252 17.8576C64.6665 17.999 64.9766 18.2062 65.2377 18.4674ZM15.9082 12.5749C16.6202 9.96804 16.1689 8.00457 14.5672 6.73631C12.7742 5.31775 9.78895 5.06638 7.77081 6.16572C6.23764 7.00068 5.55825 8.44332 5.75161 10.4548C5.82291 11.1973 5.59632 11.9378 5.12169 12.5133C4.64705 13.0887 3.96325 13.4521 3.22071 13.5234C2.47817 13.5947 1.73771 13.3681 1.16224 12.8935C0.586759 12.4188 0.223401 11.735 0.152095 10.9925C-0.259408 6.71468 1.5369 3.15529 5.08012 1.22574C9.05717 -0.939886 14.5147 -0.477581 18.057 2.32508C21.444 5.00486 22.6382 9.28092 21.3339 14.0567C20.4536 17.2802 17.4404 19.6314 13.9511 22.3545C12.0674 23.8244 10.0357 25.4097 8.33225 27.1885H19.9829C20.7288 27.1885 21.4441 27.4848 21.9716 28.0122C22.499 28.5397 22.7954 29.255 22.7954 30.001C22.7954 30.7469 22.499 31.4622 21.9716 31.9897C21.4441 32.5171 20.7288 32.8135 19.9829 32.8135H2.87143C2.39477 32.8136 1.92589 32.6926 1.50883 32.4618C1.09176 32.2311 0.740185 31.8981 0.487122 31.4941C0.234059 31.0902 0.0878095 30.6286 0.0621063 30.1526C0.0364031 29.6766 0.13209 29.202 0.340181 28.7731C2.62973 24.0545 6.80559 20.7958 10.4898 17.9207C12.9632 15.9905 15.5198 13.9954 15.9082 12.5749ZM90 45.1454C90.0001 54.0456 87.3609 62.7459 82.4163 70.1462C77.4716 77.5464 70.4435 83.3142 62.2208 86.7202C53.9981 90.1262 44.9501 91.0173 36.2209 89.2809C27.4917 87.5446 19.4735 83.2587 13.1801 76.9653C8.98841 72.7964 5.6652 67.8374 3.40284 62.3755C1.14048 56.9136 -0.0161036 51.0573 4.47214e-05 45.1454C4.47214e-05 44.3995 0.296361 43.6841 0.823807 43.1567C1.35125 42.6292 2.06662 42.3329 2.81254 42.3329C3.55847 42.3329 4.27384 42.6292 4.80128 43.1567C5.32873 43.6841 5.62504 44.3995 5.62504 45.1454C5.62504 66.8568 23.2886 84.5204 45 84.5204C66.7115 84.5204 84.375 66.8568 84.375 45.1454C84.375 25.434 69.6597 8.65021 50.1459 6.10437C49.7758 6.06126 49.4179 5.94503 49.0931 5.76245C48.7683 5.57986 48.483 5.33456 48.2538 5.04079C48.0246 4.74701 47.8561 4.41062 47.758 4.05116C47.6599 3.6917 47.6342 3.31633 47.6824 2.94686C47.7307 2.57739 47.8518 2.22118 48.0388 1.89892C48.2259 1.57667 48.4751 1.29479 48.772 1.06967C49.0689 0.844539 49.4076 0.680653 49.7684 0.587526C50.1291 0.494399 50.5048 0.473888 50.8736 0.527184C61.6975 1.95366 71.6339 7.26586 78.8321 15.4743C86.0302 23.6828 89.9993 34.2279 90 45.1454Z" fill="#F7941D"/>
</g>
<defs>
<clipPath id="clip0_14_24518">
<rect width="90" height="90" fill="white"/>
</clipPath>
</defs>
</svg>
