<svg width="90" height="90" viewBox="0 0 90 90" fill="none" xmlns="http://www.w3.org/2000/svg">
<g clip-path="url(#clip0_14_24526)">
<path d="M45 0C20.1869 0 0 20.1869 0 45C0 69.8131 20.1869 90 45 90C69.8131 90 90 69.8131 90 45C90 20.1869 69.8131 0 45 0ZM45 85.7812C22.5132 85.7812 4.21875 67.4868 4.21875 45C4.21875 22.5132 22.5132 4.21875 45 4.21875C67.4868 4.21875 85.7812 22.5132 85.7812 45C85.7812 67.4868 67.4868 85.7812 45 85.7812ZM68.5346 53.1853C68.5345 53.1853 68.5345 53.1853 68.5346 53.1853L60.2678 48.4124C59.002 47.6817 57.5249 47.488 56.109 47.8673C54.6931 48.2467 53.5106 49.1528 52.7799 50.4188C52.3559 51.1534 51.6132 52.0775 50.4835 52.3085C49.4531 52.5192 48.5434 52.3148 47.7025 51.6837C44.5957 49.3522 40.6484 45.4048 38.3164 42.2977C37.6854 41.4568 37.481 40.5469 37.6917 39.5169C37.9227 38.3868 38.8468 37.6443 39.5814 37.2203C42.1989 35.7087 43.0989 32.3497 41.5877 29.7322L36.8149 21.4652C35.4479 19.0978 32.6087 18.1048 30.0646 19.1037L29.9656 19.1426C26.0151 20.6935 23.1263 21.8837 21.9317 23.0783C19.7617 25.2485 17.5637 29.2867 19.4166 36.2018C23.0154 49.6331 40.3669 66.9846 53.7982 70.5836C55.6219 71.0722 57.2454 71.2791 58.6876 71.2791C62.7135 71.2791 65.3242 69.6663 66.922 68.0685C68.1165 66.874 69.3063 63.9858 70.8571 60.0363L70.8966 59.9358C71.8952 57.3913 70.9021 54.5523 68.5346 53.1853ZM66.9691 58.3938L66.9296 58.4946C66.1815 60.4 64.6249 64.3649 63.9383 65.0853C61.9247 67.099 58.8804 67.5777 54.8896 66.5086C42.8551 63.2839 26.7156 47.1444 23.4911 35.1098C22.4218 31.1194 22.9006 28.0749 24.9122 26.0634C25.6349 25.3747 29.6009 23.8178 31.5067 23.0697L31.6058 23.0307C31.7638 22.9685 31.9249 22.9389 32.0824 22.9389C32.5181 22.9389 32.9258 23.1678 33.1608 23.5747L37.9336 31.8415C38.2816 32.4446 38.0744 33.2184 37.4715 33.5665C35.3733 34.7778 33.9836 36.5908 33.558 38.6715C33.1045 40.8895 33.583 43.0189 34.9418 44.8298C37.5238 48.2704 41.7298 52.4763 45.17 55.0578C46.9805 56.4166 49.1101 56.8951 51.3283 56.4416C53.409 56.016 55.222 54.6261 56.4333 52.528C56.6007 52.2381 56.8731 52.03 57.2008 51.9423C57.5281 51.8548 57.8682 51.8984 58.1585 52.0659L66.4251 56.8387C66.9793 57.159 67.2031 57.7985 66.9691 58.3938Z" fill="#F7941D"/>
</g>
<defs>
<clipPath id="clip0_14_24526">
<rect width="90" height="90" fill="white"/>
</clipPath>
</defs>
</svg>
